{
    "asset" : {
        "generator" : "Khronos glTF Blender I/O v1.5.17",
        "version" : "2.0"
    },
    "scene" : 0,
    "scenes" : [
        {
            "name" : "Scene",
            "nodes" : [
                0,
                1,
                2,
                3,
                4,
                5,
                6,
                7
            ]
        }
    ],
    "nodes" : [
        {
            "mesh" : 0,
            "name" : "body.001",
            "translation" : [
                0,
                0.0038888053968548775,
                0.07346925139427185
            ]
        },
        {
            "mesh" : 1,
            "name" : "copper.001",
            "translation" : [
                0.0013386086793616414,
                -0.11533369868993759,
                -0.08562177419662476
            ]
        },
        {
            "mesh" : 2,
            "name" : "inside.001",
            "rotation" : [
                0,
                -0.7071068286895752,
                0.7071068286895752,
                -1.1520232590100932e-07
            ],
            "translation" : [
                0.1965193897485733,
                0.11840100586414337,
                0
            ]
        },
        {
            "mesh" : 3,
            "name" : "top.001",
            "translation" : [
                0,
                -0.0026017562486231327,
                0.07346925139427185
            ]
        },
        {
            "mesh" : 4,
            "name" : "bottom.001",
            "translation" : [
                0,
                0.019444024190306664,
                0.36734628677368164
            ]
        },
        {
            "mesh" : 5,
            "name" : "screw.001",
            "translation" : [
                0.19914744794368744,
                0.19044329226016998,
                -0.014911442063748837
            ]
        },
        {
            "mesh" : 6,
            "name" : "small plate.001",
            "translation" : [
                0,
                0.019444024190306664,
                0.36734628677368164
            ]
        },
        {
            "mesh" : 7,
            "name" : "inside 2.001",
            "rotation" : [
                0,
                -1,
                0,
                -1.6292068494294654e-07
            ],
            "translation" : [
                0.15491138398647308,
                0.1608525812625885,
                0.008293680846691132
            ]
        }
    ],
    "materials" : [
        {
            "doubleSided" : true,
            "name" : "body",
            "pbrMetallicRoughness" : {
                "baseColorTexture" : {
                    "index" : 0
                },
                "metallicRoughnessTexture" : {
                    "index" : 1
                },
                "roughnessFactor" : 0.20000000298023224
            }
        },
        {
            "doubleSided" : true,
            "name" : "copper",
            "pbrMetallicRoughness" : {
                "baseColorFactor" : [
                    0.8000000715255737,
                    0.4338904619216919,
                    0.2542684078216553,
                    1
                ],
                "roughnessFactor" : 0.30000001192092896
            }
        },
        {
            "doubleSided" : true,
            "name" : "light grey diff",
            "pbrMetallicRoughness" : {
                "baseColorFactor" : [
                    0.6000000238418579,
                    0.6000000238418579,
                    0.6000000238418579,
                    1
                ],
                "metallicFactor" : 0,
                "roughnessFactor" : 0.30000001192092896
            }
        },
        {
            "doubleSided" : true,
            "name" : "grey",
            "pbrMetallicRoughness" : {
                "baseColorFactor" : [
                    0.10000000149011612,
                    0.10000000149011612,
                    0.10000000149011612,
                    1
                ],
                "metallicFactor" : 0,
                "roughnessFactor" : 0.5
            }
        },
        {
            "doubleSided" : true,
            "name" : "bolt",
            "pbrMetallicRoughness" : {
                "baseColorFactor" : [
                    0.800000011920929,
                    0.800000011920929,
                    0.800000011920929,
                    1
                ],
                "roughnessFactor" : 0.20000000298023224
            }
        },
        {
            "doubleSided" : true,
            "name" : "dark metal",
            "pbrMetallicRoughness" : {
                "baseColorFactor" : [
                    0.30000001192092896,
                    0.30000001192092896,
                    0.30000001192092896,
                    1
                ],
                "roughnessFactor" : 0.4000000059604645
            }
        }
    ],
    "meshes" : [
        {
            "name" : "Cube.006",
            "primitives" : [
                {
                    "attributes" : {
                        "POSITION" : 0,
                        "NORMAL" : 1,
                        "TEXCOORD_0" : 2
                    },
                    "indices" : 3,
                    "material" : 0
                }
            ]
        },
        {
            "name" : "Plane.005",
            "primitives" : [
                {
                    "attributes" : {
                        "POSITION" : 4,
                        "NORMAL" : 5
                    },
                    "indices" : 6,
                    "material" : 1
                }
            ]
        },
        {
            "name" : "Plane.009",
            "primitives" : [
                {
                    "attributes" : {
                        "POSITION" : 7,
                        "NORMAL" : 8
                    },
                    "indices" : 9,
                    "material" : 2
                }
            ]
        },
        {
            "name" : "Cube.007",
            "primitives" : [
                {
                    "attributes" : {
                        "POSITION" : 10,
                        "NORMAL" : 11
                    },
                    "indices" : 12,
                    "material" : 3
                }
            ]
        },
        {
            "name" : "Cube.008",
            "primitives" : [
                {
                    "attributes" : {
                        "POSITION" : 13,
                        "NORMAL" : 14
                    },
                    "indices" : 15
                }
            ]
        },
        {
            "name" : "Sphere.001",
            "primitives" : [
                {
                    "attributes" : {
                        "POSITION" : 16,
                        "NORMAL" : 17
                    },
                    "indices" : 18,
                    "material" : 4
                }
            ]
        },
        {
            "name" : "Cube.009",
            "primitives" : [
                {
                    "attributes" : {
                        "POSITION" : 19,
                        "NORMAL" : 20
                    },
                    "indices" : 21,
                    "material" : 5
                }
            ]
        },
        {
            "name" : "Cube.010",
            "primitives" : [
                {
                    "attributes" : {
                        "POSITION" : 22,
                        "NORMAL" : 23,
                        "TEXCOORD_0" : 24
                    },
                    "indices" : 25,
                    "material" : 2
                }
            ]
        }
    ],
    "textures" : [
        {
            "sampler" : 0,
            "source" : 0
        },
        {
            "sampler" : 0,
            "source" : 1
        }
    ],
    "images" : [
        {
            "bufferView" : 4,
            "mimeType" : "image/jpeg",
            "name" : "battery diffuse"
        },
        {
            "bufferView" : 5,
            "mimeType" : "image/png",
            "name" : "battery-metallic"
        }
    ],
    "accessors" : [
        {
            "bufferView" : 0,
            "componentType" : 5126,
            "count" : 512,
            "max" : [
                0.29937300086021423,
                0.18955324590206146,
                0.09643308073282242
            ],
            "min" : [
                -0.29937300086021423,
                -0.1907532513141632,
                -0.09643308073282242
            ],
            "type" : "VEC3"
        },
        {
            "bufferView" : 1,
            "componentType" : 5126,
            "count" : 512,
            "type" : "VEC3"
        },
        {
            "bufferView" : 2,
            "componentType" : 5126,
            "count" : 512,
            "type" : "VEC2"
        },
        {
            "bufferView" : 3,
            "componentType" : 5123,
            "count" : 1548,
            "type" : "SCALAR"
        },
        {
            "bufferView" : 6,
            "componentType" : 5126,
            "count" : 17780,
            "max" : [
                0.28405579924583435,
                0.2938796579837799,
                0.0773458406329155
            ],
            "min" : [
                -0.28405579924583435,
                -0.05985679477453232,
                0.0684974193572998
            ],
            "type" : "VEC3"
        },
        {
            "bufferView" : 7,
            "componentType" : 5126,
            "count" : 17780,
            "type" : "VEC3"
        },
        {
            "bufferView" : 8,
            "componentType" : 5123,
            "count" : 96480,
            "type" : "SCALAR"
        },
        {
            "bufferView" : 9,
            "componentType" : 5126,
            "count" : 3477,
            "max" : [
                0.4884214997291565,
                0.013770503923296928,
                0.3017779588699341
            ],
            "min" : [
                -0.09342415630817413,
                -6.161166243856542e-09,
                -0.0588529147207737
            ],
            "type" : "VEC3"
        },
        {
            "bufferView" : 10,
            "componentType" : 5126,
            "count" : 3477,
            "type" : "VEC3"
        },
        {
            "bufferView" : 11,
            "componentType" : 5123,
            "count" : 8118,
            "type" : "SCALAR"
        },
        {
            "bufferView" : 12,
            "componentType" : 5126,
            "count" : 1756,
            "max" : [
                0.29574427008628845,
                0.19254101812839508,
                0.09526421874761581
            ],
            "min" : [
                -0.29574427008628845,
                0.18451616168022156,
                -0.09526421874761581
            ],
            "type" : "VEC3"
        },
        {
            "bufferView" : 13,
            "componentType" : 5126,
            "count" : 1756,
            "type" : "VEC3"
        },
        {
            "bufferView" : 14,
            "componentType" : 5123,
            "count" : 3300,
            "type" : "SCALAR"
        },
        {
            "bufferView" : 15,
            "componentType" : 5126,
            "count" : 144,
            "max" : [
                0.2990034818649292,
                -0.20390845835208893,
                -0.19781342148780823
            ],
            "min" : [
                -0.2990034520626068,
                -0.20510846376419067,
                -0.3899405896663666
            ],
            "type" : "VEC3"
        },
        {
            "bufferView" : 16,
            "componentType" : 5126,
            "count" : 144,
            "type" : "VEC3"
        },
        {
            "bufferView" : 17,
            "componentType" : 5123,
            "count" : 276,
            "type" : "SCALAR"
        },
        {
            "bufferView" : 18,
            "componentType" : 5126,
            "count" : 568,
            "max" : [
                0.0038580845575779676,
                0.0018650594865903258,
                0.003825369058176875
            ],
            "min" : [
                -0.40215298533439636,
                -0.004550704266875982,
                -0.0038253709208220243
            ],
            "type" : "VEC3"
        },
        {
            "bufferView" : 19,
            "componentType" : 5126,
            "count" : 568,
            "type" : "VEC3"
        },
        {
            "bufferView" : 20,
            "componentType" : 5123,
            "count" : 3288,
            "type" : "SCALAR"
        },
        {
            "bufferView" : 21,
            "componentType" : 5126,
            "count" : 238,
            "max" : [
                0.29957306385040283,
                0.1534389704465866,
                -0.34185636043548584
            ],
            "min" : [
                0.2962105870246887,
                0.12490149587392807,
                -0.39054441452026367
            ],
            "type" : "VEC3"
        },
        {
            "bufferView" : 22,
            "componentType" : 5126,
            "count" : 238,
            "type" : "VEC3"
        },
        {
            "bufferView" : 23,
            "componentType" : 5123,
            "count" : 768,
            "type" : "SCALAR"
        },
        {
            "bufferView" : 24,
            "componentType" : 5126,
            "count" : 144,
            "max" : [
                0.41216161847114563,
                0.01624508760869503,
                0.01624508760869503
            ],
            "min" : [
                -0.10271160304546356,
                -0.01624508760869503,
                -0.01624508760869503
            ],
            "type" : "VEC3"
        },
        {
            "bufferView" : 25,
            "componentType" : 5126,
            "count" : 144,
            "type" : "VEC3"
        },
        {
            "bufferView" : 26,
            "componentType" : 5126,
            "count" : 144,
            "type" : "VEC2"
        },
        {
            "bufferView" : 27,
            "componentType" : 5123,
            "count" : 216,
            "type" : "SCALAR"
        }
    ],
    "bufferViews" : [
        {
            "buffer" : 0,
            "byteLength" : 6144,
            "byteOffset" : 0
        },
        {
            "buffer" : 0,
            "byteLength" : 6144,
            "byteOffset" : 6144
        },
        {
            "buffer" : 0,
            "byteLength" : 4096,
            "byteOffset" : 12288
        },
        {
            "buffer" : 0,
            "byteLength" : 3096,
            "byteOffset" : 16384
        },
        {
            "buffer" : 0,
            "byteLength" : 52213,
            "byteOffset" : 19480
        },
        {
            "buffer" : 0,
            "byteLength" : 65421,
            "byteOffset" : 71696
        },
        {
            "buffer" : 0,
            "byteLength" : 213360,
            "byteOffset" : 137120
        },
        {
            "buffer" : 0,
            "byteLength" : 213360,
            "byteOffset" : 350480
        },
        {
            "buffer" : 0,
            "byteLength" : 192960,
            "byteOffset" : 563840
        },
        {
            "buffer" : 0,
            "byteLength" : 41724,
            "byteOffset" : 756800
        },
        {
            "buffer" : 0,
            "byteLength" : 41724,
            "byteOffset" : 798524
        },
        {
            "buffer" : 0,
            "byteLength" : 16236,
            "byteOffset" : 840248
        },
        {
            "buffer" : 0,
            "byteLength" : 21072,
            "byteOffset" : 856484
        },
        {
            "buffer" : 0,
            "byteLength" : 21072,
            "byteOffset" : 877556
        },
        {
            "buffer" : 0,
            "byteLength" : 6600,
            "byteOffset" : 898628
        },
        {
            "buffer" : 0,
            "byteLength" : 1728,
            "byteOffset" : 905228
        },
        {
            "buffer" : 0,
            "byteLength" : 1728,
            "byteOffset" : 906956
        },
        {
            "buffer" : 0,
            "byteLength" : 552,
            "byteOffset" : 908684
        },
        {
            "buffer" : 0,
            "byteLength" : 6816,
            "byteOffset" : 909236
        },
        {
            "buffer" : 0,
            "byteLength" : 6816,
            "byteOffset" : 916052
        },
        {
            "buffer" : 0,
            "byteLength" : 6576,
            "byteOffset" : 922868
        },
        {
            "buffer" : 0,
            "byteLength" : 2856,
            "byteOffset" : 929444
        },
        {
            "buffer" : 0,
            "byteLength" : 2856,
            "byteOffset" : 932300
        },
        {
            "buffer" : 0,
            "byteLength" : 1536,
            "byteOffset" : 935156
        },
        {
            "buffer" : 0,
            "byteLength" : 1728,
            "byteOffset" : 936692
        },
        {
            "buffer" : 0,
            "byteLength" : 1728,
            "byteOffset" : 938420
        },
        {
            "buffer" : 0,
            "byteLength" : 1152,
            "byteOffset" : 940148
        },
        {
            "buffer" : 0,
            "byteLength" : 432,
            "byteOffset" : 941300
        }
    ],
    "samplers" : [
        {
            "magFilter" : 9729,
            "minFilter" : 9987
        }
    ],
    "buffers" : [
        {
            "byteLength" : 941732,
            "uri" : "data:application/octet-stream;base64,"
        }
    ]
}
